<svg xmlns="http://www.w3.org/2000/svg" width="475" height="475" viewbox="0 0 475 475" preserveAspectRatio="none"><rect x="0" y="0" width="100%" height="100%" fill="rgb(63, 143, 142)" /><rect x="4.4" y="4.4" width="61.6" height="61.6" fill="none" stroke="#222" style="opacity:0.098;stroke-width:8.8px;" /><rect x="22" y="22" width="26.4" height="26.4" fill="none" stroke="#ddd" style="opacity:0.054666666666667;stroke-width:8.8px;" /><rect x="83.6" y="4.4" width="61.6" height="61.6" fill="none" stroke="#222" style="opacity:0.063333333333333;stroke-width:8.8px;" /><rect x="101.2" y="22" width="26.4" height="26.4" fill="none" stroke="#ddd" style="opacity:0.10666666666667;stroke-width:8.8px;" /><rect x="162.8" y="4.4" width="61.6" height="61.6" fill="none" stroke="#222" style="opacity:0.046;stroke-width:8.8px;" /><rect x="180.4" y="22" width="26.4" height="26.4" fill="none" stroke="#222" style="opacity:0.15;stroke-width:8.8px;" /><rect x="242" y="4.4" width="61.6" height="61.6" fill="none" stroke="#222" style="opacity:0.098;stroke-width:8.8px;" /><rect x="259.6" y="22" width="26.4" height="26.4" fill="none" stroke="#ddd" style="opacity:0.124;stroke-width:8.8px;" /><rect x="321.2" y="4.4" width="61.6" height="61.6" fill="none" stroke="#ddd" style="opacity:0.10666666666667;stroke-width:8.8px;" /><rect x="338.8" y="22" width="26.4" height="26.4" fill="none" stroke="#222" style="opacity:0.098;stroke-width:8.8px;" /><rect x="400.4" y="4.4" width="61.6" height="61.6" fill="none" stroke="#ddd" style="opacity:0.054666666666667;stroke-width:8.8px;" /><rect x="418" y="22" width="26.4" height="26.4" fill="none" stroke="#222" style="opacity:0.11533333333333;stroke-width:8.8px;" /><rect x="4.4" y="83.6" width="61.6" height="61.6" fill="none" stroke="#222" style="opacity:0.13266666666667;stroke-width:8.8px;" /><rect x="22" y="101.2" width="26.4" height="26.4" fill="none" stroke="#ddd" style="opacity:0.02;stroke-width:8.8px;" /><rect x="83.6" y="83.6" width="61.6" height="61.6" fill="none" stroke="#222" style="opacity:0.063333333333333;stroke-width:8.8px;" /><rect x="101.2" y="101.2" width="26.4" height="26.4" fill="none" stroke="#ddd" style="opacity:0.14133333333333;stroke-width:8.8px;" /><rect x="162.8" y="83.6" width="61.6" height="61.6" fill="none" stroke="#ddd" style="opacity:0.072;stroke-width:8.8px;" /><rect x="180.4" y="101.2" width="26.4" height="26.4" fill="none" stroke="#ddd" style="opacity:0.02;stroke-width:8.8px;" /><rect x="242" y="83.6" width="61.6" height="61.6" fill="none" stroke="#ddd" style="opacity:0.072;stroke-width:8.8px;" /><rect x="259.6" y="101.2" width="26.4" height="26.4" fill="none" stroke="#ddd" style="opacity:0.072;stroke-width:8.8px;" /><rect x="321.2" y="83.6" width="61.6" height="61.6" fill="none" stroke="#ddd" style="opacity:0.10666666666667;stroke-width:8.8px;" /><rect x="338.8" y="101.2" width="26.4" height="26.4" fill="none" stroke="#222" style="opacity:0.13266666666667;stroke-width:8.8px;" /><rect x="400.4" y="83.6" width="61.6" height="61.6" fill="none" stroke="#222" style="opacity:0.098;stroke-width:8.8px;" /><rect x="418" y="101.2" width="26.4" height="26.4" fill="none" stroke="#222" style="opacity:0.080666666666667;stroke-width:8.8px;" /><rect x="4.4" y="162.8" width="61.6" height="61.6" fill="none" stroke="#ddd" style="opacity:0.14133333333333;stroke-width:8.8px;" /><rect x="22" y="180.4" width="26.4" height="26.4" fill="none" stroke="#ddd" style="opacity:0.02;stroke-width:8.8px;" /><rect x="83.6" y="162.8" width="61.6" height="61.6" fill="none" stroke="#222" style="opacity:0.063333333333333;stroke-width:8.8px;" /><rect x="101.2" y="180.4" width="26.4" height="26.4" fill="none" stroke="#222" style="opacity:0.098;stroke-width:8.8px;" /><rect x="162.8" y="162.8" width="61.6" height="61.6" fill="none" stroke="#ddd" style="opacity:0.089333333333333;stroke-width:8.8px;" /><rect x="180.4" y="180.4" width="26.4" height="26.4" fill="none" stroke="#222" style="opacity:0.13266666666667;stroke-width:8.8px;" /><rect x="242" y="162.8" width="61.6" height="61.6" fill="none" stroke="#222" style="opacity:0.028666666666667;stroke-width:8.8px;" /><rect x="259.6" y="180.4" width="26.4" height="26.4" fill="none" stroke="#222" style="opacity:0.028666666666667;stroke-width:8.8px;" /><rect x="321.2" y="162.8" width="61.6" height="61.6" fill="none" stroke="#222" style="opacity:0.028666666666667;stroke-width:8.8px;" /><rect x="338.8" y="180.4" width="26.4" height="26.4" fill="none" stroke="#222" style="opacity:0.13266666666667;stroke-width:8.8px;" /><rect x="400.4" y="162.8" width="61.6" height="61.6" fill="none" stroke="#222" style="opacity:0.046;stroke-width:8.8px;" /><rect x="418" y="180.4" width="26.4" height="26.4" fill="none" stroke="#222" style="opacity:0.080666666666667;stroke-width:8.8px;" /><rect x="4.4" y="242" width="61.6" height="61.6" fill="none" stroke="#222" style="opacity:0.028666666666667;stroke-width:8.8px;" /><rect x="22" y="259.6" width="26.4" height="26.4" fill="none" stroke="#222" style="opacity:0.098;stroke-width:8.8px;" /><rect x="83.6" y="242" width="61.6" height="61.6" fill="none" stroke="#222" style="opacity:0.15;stroke-width:8.8px;" /><rect x="101.2" y="259.6" width="26.4" height="26.4" fill="none" stroke="#222" style="opacity:0.13266666666667;stroke-width:8.8px;" /><rect x="162.8" y="242" width="61.6" height="61.6" fill="none" stroke="#222" style="opacity:0.13266666666667;stroke-width:8.8px;" /><rect x="180.4" y="259.6" width="26.4" height="26.4" fill="none" stroke="#222" style="opacity:0.15;stroke-width:8.8px;" /><rect x="242" y="242" width="61.6" height="61.6" fill="none" stroke="#222" style="opacity:0.098;stroke-width:8.8px;" /><rect x="259.6" y="259.6" width="26.4" height="26.4" fill="none" stroke="#222" style="opacity:0.028666666666667;stroke-width:8.8px;" /><rect x="321.2" y="242" width="61.6" height="61.6" fill="none" stroke="#222" style="opacity:0.080666666666667;stroke-width:8.8px;" /><rect x="338.8" y="259.6" width="26.4" height="26.4" fill="none" stroke="#222" style="opacity:0.046;stroke-width:8.8px;" /><rect x="400.4" y="242" width="61.6" height="61.6" fill="none" stroke="#222" style="opacity:0.13266666666667;stroke-width:8.8px;" /><rect x="418" y="259.6" width="26.4" height="26.4" fill="none" stroke="#222" style="opacity:0.028666666666667;stroke-width:8.8px;" /><rect x="4.4" y="321.2" width="61.6" height="61.6" fill="none" stroke="#222" style="opacity:0.028666666666667;stroke-width:8.8px;" /><rect x="22" y="338.8" width="26.4" height="26.4" fill="none" stroke="#222" style="opacity:0.028666666666667;stroke-width:8.8px;" /><rect x="83.6" y="321.2" width="61.6" height="61.6" fill="none" stroke="#222" style="opacity:0.13266666666667;stroke-width:8.8px;" /><rect x="101.2" y="338.8" width="26.4" height="26.4" fill="none" stroke="#ddd" style="opacity:0.089333333333333;stroke-width:8.8px;" /><rect x="162.8" y="321.2" width="61.6" height="61.6" fill="none" stroke="#222" style="opacity:0.098;stroke-width:8.8px;" /><rect x="180.4" y="338.8" width="26.4" height="26.4" fill="none" stroke="#222" style="opacity:0.063333333333333;stroke-width:8.8px;" /><rect x="242" y="321.2" width="61.6" height="61.6" fill="none" stroke="#ddd" style="opacity:0.02;stroke-width:8.8px;" /><rect x="259.6" y="338.8" width="26.4" height="26.4" fill="none" stroke="#ddd" style="opacity:0.14133333333333;stroke-width:8.8px;" /><rect x="321.2" y="321.2" width="61.6" height="61.6" fill="none" stroke="#222" style="opacity:0.080666666666667;stroke-width:8.8px;" /><rect x="338.8" y="338.8" width="26.4" height="26.4" fill="none" stroke="#222" style="opacity:0.098;stroke-width:8.8px;" /><rect x="400.4" y="321.2" width="61.6" height="61.6" fill="none" stroke="#222" style="opacity:0.13266666666667;stroke-width:8.8px;" /><rect x="418" y="338.8" width="26.4" height="26.4" fill="none" stroke="#ddd" style="opacity:0.10666666666667;stroke-width:8.8px;" /><rect x="4.4" y="400.4" width="61.6" height="61.6" fill="none" stroke="#ddd" style="opacity:0.072;stroke-width:8.8px;" /><rect x="22" y="418" width="26.4" height="26.4" fill="none" stroke="#ddd" style="opacity:0.072;stroke-width:8.8px;" /><rect x="83.6" y="400.4" width="61.6" height="61.6" fill="none" stroke="#ddd" style="opacity:0.02;stroke-width:8.8px;" /><rect x="101.2" y="418" width="26.4" height="26.4" fill="none" stroke="#ddd" style="opacity:0.072;stroke-width:8.8px;" /><rect x="162.8" y="400.4" width="61.6" height="61.6" fill="none" stroke="#ddd" style="opacity:0.14133333333333;stroke-width:8.8px;" /><rect x="180.4" y="418" width="26.4" height="26.4" fill="none" stroke="#222" style="opacity:0.063333333333333;stroke-width:8.8px;" /><rect x="242" y="400.4" width="61.6" height="61.6" fill="none" stroke="#ddd" style="opacity:0.02;stroke-width:8.8px;" /><rect x="259.6" y="418" width="26.4" height="26.4" fill="none" stroke="#222" style="opacity:0.13266666666667;stroke-width:8.8px;" /><rect x="321.2" y="400.4" width="61.6" height="61.6" fill="none" stroke="#222" style="opacity:0.11533333333333;stroke-width:8.8px;" /><rect x="338.8" y="418" width="26.4" height="26.4" fill="none" stroke="#ddd" style="opacity:0.054666666666667;stroke-width:8.8px;" /><rect x="400.4" y="400.4" width="61.6" height="61.6" fill="none" stroke="#222" style="opacity:0.098;stroke-width:8.8px;" /><rect x="418" y="418" width="26.4" height="26.4" fill="none" stroke="#ddd" style="opacity:0.10666666666667;stroke-width:8.8px;" /></svg>