<svg xmlns="http://www.w3.org/2000/svg" width="423" height="423" viewbox="0 0 423 423" preserveAspectRatio="none"><rect x="0" y="0" width="100%" height="100%" fill="rgb(54, 190, 205)" /><rect x="0" y="18" width="100%" height="13" opacity="0.089333333333333" fill="#ddd" /><rect x="0" y="39" width="100%" height="14" opacity="0.098" fill="#222" /><rect x="0" y="58" width="100%" height="17" opacity="0.124" fill="#ddd" /><rect x="0" y="90" width="100%" height="18" opacity="0.13266666666667" fill="#222" /><rect x="0" y="124" width="100%" height="13" opacity="0.089333333333333" fill="#ddd" /><rect x="0" y="148" width="100%" height="6" opacity="0.028666666666667" fill="#222" /><rect x="0" y="165" width="100%" height="15" opacity="0.10666666666667" fill="#ddd" /><rect x="0" y="188" width="100%" height="16" opacity="0.11533333333333" fill="#222" /><rect x="0" y="212" width="100%" height="14" opacity="0.098" fill="#222" /><rect x="0" y="236" width="100%" height="18" opacity="0.13266666666667" fill="#222" /><rect x="0" y="266" width="100%" height="6" opacity="0.028666666666667" fill="#222" /><rect x="0" y="290" width="100%" height="5" opacity="0.02" fill="#ddd" /><rect x="0" y="309" width="100%" height="10" opacity="0.063333333333333" fill="#222" /><rect x="0" y="327" width="100%" height="7" opacity="0.037333333333333" fill="#ddd" /><rect x="0" y="348" width="100%" height="8" opacity="0.046" fill="#222" /><rect x="0" y="361" width="100%" height="5" opacity="0.02" fill="#ddd" /><rect x="0" y="383" width="100%" height="10" opacity="0.063333333333333" fill="#222" /><rect x="0" y="401" width="100%" height="6" opacity="0.028666666666667" fill="#222" /><rect x="0" y="412" width="100%" height="11" opacity="0.072" fill="#ddd" /><rect x="18" y="0" width="13" height="100%" opacity="0.089333333333333" fill="#ddd" /><rect x="39" y="0" width="14" height="100%" opacity="0.098" fill="#222" /><rect x="58" y="0" width="17" height="100%" opacity="0.124" fill="#ddd" /><rect x="90" y="0" width="18" height="100%" opacity="0.13266666666667" fill="#222" /><rect x="124" y="0" width="13" height="100%" opacity="0.089333333333333" fill="#ddd" /><rect x="148" y="0" width="6" height="100%" opacity="0.028666666666667" fill="#222" /><rect x="165" y="0" width="15" height="100%" opacity="0.10666666666667" fill="#ddd" /><rect x="188" y="0" width="16" height="100%" opacity="0.11533333333333" fill="#222" /><rect x="212" y="0" width="14" height="100%" opacity="0.098" fill="#222" /><rect x="236" y="0" width="18" height="100%" opacity="0.13266666666667" fill="#222" /><rect x="266" y="0" width="6" height="100%" opacity="0.028666666666667" fill="#222" /><rect x="290" y="0" width="5" height="100%" opacity="0.02" fill="#ddd" /><rect x="309" y="0" width="10" height="100%" opacity="0.063333333333333" fill="#222" /><rect x="327" y="0" width="7" height="100%" opacity="0.037333333333333" fill="#ddd" /><rect x="348" y="0" width="8" height="100%" opacity="0.046" fill="#222" /><rect x="361" y="0" width="5" height="100%" opacity="0.02" fill="#ddd" /><rect x="383" y="0" width="10" height="100%" opacity="0.063333333333333" fill="#222" /><rect x="401" y="0" width="6" height="100%" opacity="0.028666666666667" fill="#222" /><rect x="412" y="0" width="11" height="100%" opacity="0.072" fill="#ddd" /></svg>